<?xml version="1.0" encoding="UTF-8" standalone="no"?><!DOCTYPE svg PUBLIC "-//W3C//DTD SVG 1.1//EN" "http://www.w3.org/Graphics/SVG/1.1/DTD/svg11.dtd"><svg width="100%" height="100%" viewBox="0 0 20000 6000" version="1.1" xmlns="http://www.w3.org/2000/svg" xmlns:xlink="http://www.w3.org/1999/xlink" xml:space="preserve" xmlns:serif="http://www.serif.com/" style="fill-rule:evenodd;clip-rule:evenodd;stroke-linejoin:round;stroke-miterlimit:2;"><g><g><g><path d="M3006.397,2521.201c0,150.768 -79.659,250.286 -190.898,311.921c-107.9,59.785 -246.063,83.313 -367.389,83.313c-148.832,0 -305.108,-32.317 -436.252,-99.521l-0.476,-0.244l-0.463,-0.269c-13.968,-8.12 -30.239,-18.531 -46.148,-25.506c-8.278,-3.629 -16.324,-6.443 -23.692,-6.443c-12.492,0 -19.391,5.879 -29.655,13.39l-10.67,7.808l-51.261,-29.903l140.366,-314.937l58.199,22.339l0,13.874c0,51.268 44.869,87.782 102.165,115.565c94.872,46.003 226.406,65.263 291.08,65.263c59.643,0 150.359,-8.948 213.306,-44.474c37.47,-21.147 64.738,-52.139 64.738,-98.393c0,-38.969 -28.671,-59.427 -71.324,-73.518c-51.252,-16.931 -121.758,-23.697 -198.636,-30.778c-95.615,-8.807 -200.77,-17.886 -292.561,-44.899c-144.382,-42.491 -256.496,-128.186 -256.496,-319.512c0,-297.247 287.405,-387.894 534.081,-387.894c105.883,0 207.623,21.531 305.575,54.562c33.02,11.135 65.609,23.577 97.781,36.941l0.731,0.304l0.705,0.36c16.104,8.222 38.233,18.68 56.991,25.717c10.087,3.784 18.821,6.871 24.237,6.871c11.773,0 20.488,-8.143 27.597,-14.968l10.842,-10.408l53.96,30.54l-153.282,307.136l-53.323,-30.574l0,-11.694c0,-26.974 -17.396,-42.044 -38.993,-55.564l-0.478,-0.299l-0.46,-0.325c-90.375,-63.862 -211.052,-100.491 -318.182,-100.491c-56.145,0 -147.149,3.137 -210.908,31.963c-36.584,16.54 -63.97,41.808 -63.97,83.113c0,34.481 18.265,54.985 43.125,68.104c29.204,15.413 66.562,21.633 99.045,26.551c127.844,12.19 297.674,19.553 435.664,67.322c144.847,50.143 255.331,143.725 255.331,327.656Zm1935.671,374.222l0,-65.95l17.821,-2.102c17.824,-2.102 37.875,-8.494 37.875,-28.421c0,-17.148 -2.725,-31.31 -11.025,-45.509l-0.374,-0.64l-74.689,-152.442l-502.195,0l-71.288,151.56l-0.035,0.073c-5.679,11.827 -15.297,28.772 -15.297,43.344c0,8.663 4.73,14.647 10.715,19.165c8.897,6.716 20.38,10.682 30.305,13.497l14.676,4.164l0,63.26l-422.312,0l-0,-64.741l16.446,-3.101c48.022,-9.054 58.47,-37.316 79.278,-79.049l423.411,-888.874l0.086,-0.172c9.1,-18.199 18.881,-35.788 18.881,-56.754c0,-22.157 -16.187,-33.194 -35.41,-40.579l-12.946,-4.974l0,-61.397l449.655,0l0,62.516l-14.346,4.335c-16.151,4.881 -34.121,14.512 -34.121,32.787c0,14.836 6.154,32.607 12.043,47.452l444.049,891.402l0.01,0.02c21.227,42.847 37.835,84.028 89.537,93.252l16.64,2.969l-0,64.908l-467.389,0Zm-122.216,-495.321l-156.119,-344.237l-159.202,344.237l315.321,0Zm4842.664,-340.631c0,106.557 -41.411,220.597 -129.725,287.137l-0.214,0.153c-100.764,71.887 -226.469,76.426 -345.168,76.426l-396.439,0l-0,361.643c0,24.983 19.191,35.87 41.893,43.438l13.802,4.601l0,62.554l-401.188,0l-0,-64.716l16.416,-3.12c0,0 38.859,-6.721 38.859,-42.757l0,-978.904c0,-24.998 -19.155,-35.926 -41.551,-43.492l-13.725,-4.637l-0,-62.016l741.931,0c118.81,0 248.361,8.192 345.527,80.274l0.055,0.041c88.165,66.339 129.526,176.654 129.526,283.373Zm-297.109,0c0,-33.423 -7.402,-58.846 -20.949,-77.88c-32.992,-46.35 -99.039,-54.594 -167.107,-54.594l-386.381,-0l-0,268.477l368.984,0c93.523,0 205.455,-17.503 205.455,-136.003Zm2195.294,835.953l-0,-62.986l14.338,-4.34c24.801,-7.506 41.386,-18.486 41.386,-43.268l0,-396.439l-629.714,0l0,396.439c0,24.975 19.155,35.901 41.528,43.466l13.72,4.639l0,62.488l-401.16,0l-0,-62.488l13.72,-4.639c22.409,-7.577 41.976,-18.451 41.976,-43.466l0,-978.904c0,-25.037 -19.566,-35.916 -41.976,-43.494l-13.72,-4.639l-0,-62.012l401.16,0l0,62.012l-13.72,4.639c-22.375,7.566 -41.528,18.496 -41.528,43.494l-0,351.221l629.714,-0l0,-351.221c0,-24.803 -16.582,-35.789 -41.386,-43.296l-14.338,-4.34l-0,-62.509l401.3,0l-0,62.012l-13.72,4.639c-22.124,7.481 -38.362,18.776 -38.362,43.494l0,978.904c0,24.695 16.24,35.985 38.362,43.466l13.72,4.639l-0,62.488l-401.3,0Zm1542.449,0l0,-62.492l13.725,-4.637c22.393,-7.565 41.551,-18.488 41.551,-43.464l0,-978.904c0,-24.998 -19.155,-35.926 -41.551,-43.492l-13.725,-4.637l0,-62.016l401.3,0l-0,62.012l-13.72,4.639c-22.384,7.569 -41.64,18.486 -41.64,43.494l0,978.904c0,24.985 19.258,35.897 41.64,43.466l13.72,4.639l-0,62.488l-401.3,0Zm2379.018,-0l0,-64.723l16.425,-3.115c5.52,-1.047 11.961,-2.511 17.671,-5.047c3.317,-1.473 7.479,-2.376 7.479,-6.191c0,-8.933 -5.95,-18.812 -11.965,-28.421c-8.083,-12.912 -17.429,-24.997 -22.773,-33.718l-226.251,-331.023l-281.595,0l0,361.643c0,24.985 19.258,35.897 41.64,43.466l13.72,4.639l0,62.488l-401.3,0l-0,-64.716l16.416,-3.12c0,0 38.859,-6.721 38.859,-42.757l0,-978.904c0,-24.998 -19.155,-35.926 -41.551,-43.492l-13.725,-4.637l-0,-62.016l745.545,0c179.878,0 349.761,27.384 436.059,151.375c37.466,53.83 59.724,125.999 59.724,222.735c0,84.228 -22.772,151.226 -62.211,203.325c-53.068,70.101 -136.936,113.43 -238.82,133.975l207.365,293.426l0.077,0.112c18.414,26.813 37.679,58.027 61.699,83.294c21.402,22.513 46.667,40.312 79.639,43.291l18.369,1.66l0,66.449l-460.497,0Zm100.885,-835.953c0,-38.826 -9.974,-67.017 -27.466,-87.188c-17.63,-20.331 -42.453,-32.38 -70.32,-39.963c-40.906,-11.13 -88.232,-12.55 -132.295,-12.55l-371.813,-0l-0,272.091l371.813,0c42.954,0 90.163,-0.886 131.332,-11.15c27.998,-6.98 53.151,-18.226 71.076,-37.705c17.578,-19.103 27.673,-46.068 27.673,-83.534Zm2461.256,891.648l-4.603,-13.797c-7.548,-22.624 -18.374,-41.898 -43.44,-41.898l-1071.651,0l0,-64.716l16.416,-3.12c0,0 38.859,-6.721 38.859,-42.757l0,-978.904c0,-27.361 -19.179,-35.927 -41.556,-43.494l-13.72,-4.639l0,-62.012l1051.087,0c24.775,0 35.984,-16.243 43.464,-38.385l4.637,-13.725l62.156,-0l0,338.712l-62.156,0l-4.637,-13.725c-7.568,-22.402 -18.398,-41.663 -43.464,-41.663l-58.325,0l-647.27,-0l-0,233.765l452.135,0c9.138,0 16.546,-1.871 22.322,-5.838c9.216,-6.33 13.968,-17.299 16.818,-30.362l3.466,-15.882l64.373,-0l0,331.792l-64.373,0l-3.466,-15.882c-4.662,-21.365 -15.29,-39.365 -39.14,-39.365l-452.135,-0l-0,278.954l726.158,0c25.066,0 35.892,-19.275 43.44,-41.898l4.603,-13.797l59.048,0l0,342.635l-59.048,0Z" style="fill:#C9A66B;"/><path d="M7540.764,2061.264c0,106.557 -41.411,220.597 -129.725,287.137l-0.214,0.153c-100.764,71.887 -226.469,76.426 -345.168,76.426l-396.439,0l-0,361.643c0,24.983 19.191,35.87 41.893,43.438l13.802,4.601l0,62.554l-401.188,0l-0,-64.716l16.416,-3.12c0,0 38.859,-6.721 38.859,-42.757l0,-978.904c0,-24.998 -19.155,-35.926 -41.551,-43.492l-13.725,-4.637l-0,-62.016l741.931,0c118.81,0 248.361,8.192 345.527,80.274l0.055,0.041c88.165,66.339 129.526,176.654 129.526,283.373Zm-297.109,0c0,-33.423 -7.402,-58.846 -20.949,-77.88c-32.992,-46.35 -99.039,-54.594 -167.107,-54.594l-386.381,-0l-0,268.477l368.984,0c93.523,0 205.455,-17.503 205.455,-136.003Z" style="fill:#C9A66B;"/><path d="M4919.833,4318.322l-73.377,0l-74.75,-181.143l-243.594,0l-74.362,181.143l-71.466,0l237.654,-573.282l63.615,0l236.28,573.282Zm-368.048,-240.221l198.846,0l-71.078,-179.74c-1.881,-4.896 -4.09,-12.508 -7.821,-23.255c-3.612,-10.478 -8.12,-21.882 -11.851,-33.106c-3.702,-11.374 -7.015,-20.807 -9.642,-27.792c-2.478,10.478 -5.523,21.225 -8.418,31.673c-3.433,10.448 -6.747,20.538 -9.642,29.225c-3.015,9.045 -5.911,17.046 -7.791,23.255l-72.601,179.74Zm1103.189,-330.584l158.844,0c78.81,0 136.186,14.598 172.158,43.136c36.211,28.837 54.062,70.212 54.062,123.737c0,23.941 -4.12,47.226 -12.239,68.421c-8.926,21.971 -22.568,41.107 -41.136,57.376c-18.867,17.075 -43.644,29.912 -73.974,39.315c-30.718,9.732 -68.541,14.24 -112.901,14.24l-74.063,0l0,224.578l-70.75,0l0,-570.804Zm152.157,56.6l-81.407,0l0,232.609l66.242,0c38.539,0 71.018,-3.761 97.348,-11.523c25.583,-7.911 45.166,-20.807 58.122,-38.151c12.926,-17.702 19.643,-40.689 19.643,-69.914c0,-37.912 -12.956,-66.362 -38.838,-85.109c-25.613,-18.479 -65.944,-27.912 -121.11,-27.912m1429.878,514.205l-73.228,0l-74.78,-181.143l-243.594,0l-74.451,181.143l-71.466,0l237.743,-573.282l63.645,0l236.131,573.282Zm-367.899,-240.221l198.816,0l-71.138,-179.74c-1.851,-4.896 -4.06,-12.508 -7.762,-23.255c-4.09,-10.478 -8.12,-21.882 -11.821,-33.106c-3.732,-11.374 -7.015,-20.807 -9.642,-27.792c-3.015,10.478 -5.523,21.225 -8.538,31.673c-3.314,10.448 -6.627,20.538 -9.642,29.225c-2.896,9.045 -5.911,17.046 -7.732,23.255l-72.541,179.74Zm1117.578,-330.584l164.396,0c49.973,0 91.019,5.911 123.946,17.404c32.211,11.404 56.271,29.136 72.541,52.779c16.359,24.031 24.091,53.913 24.091,90.751c0,29.882 -5.523,55.227 -17.344,75.377c-11.553,20.18 -27.106,36.599 -45.555,49.137c-18.896,12.419 -39.256,22.21 -60.331,28.837l166.575,256.52l-82.183,0l-148.843,-238.161l-126.663,0l0,238.161l-70.63,0l0,-570.804Zm160.277,57.346l-89.646,0l0,219.056l96.662,0c49.585,0 85.915,-9.433 109.617,-28.569c23.255,-19.135 35.106,-46.928 35.106,-83.795c0,-38.539 -12.538,-66.332 -36.927,-82.362c-25.195,-16.031 -63.317,-24.33 -114.812,-24.33m1210.732,1.433l0,512.025l-71.048,0l0,-512.025l-191.383,0l0,-58.779l452.709,0l0,58.779l-190.278,0Zm1273.048,512.025l-57.704,0l-204.339,-505.159l-3.403,0c1.493,10.478 2.209,23.673 2.985,38.927c1.105,15.374 1.821,32.061 2.239,50.152c0.358,18.359 0.687,36.45 0.687,55.227l0,360.854l-65.555,0l0,-570.804l104.811,0l192.487,474.859l2.985,0l195.114,-474.859l103.975,0l0,570.804l-69.944,0l0,-365.391c0,-16.658 0.776,-34.002 1.105,-51.077c0.388,-17.046 1.105,-33.345 1.881,-48.629c1.105,-14.986 1.821,-27.882 2.627,-39.315l-3.403,0l-206.548,504.413Zm1416.041,-58.421l0,58.421l-338.435,0l0,-570.804l338.435,0l0,58.779l-267.685,0l0,184.517l252.102,0l0,57.794l-252.102,0l0,211.294l267.685,0Zm1275.615,-512.384l0,570.804l-81.497,0l-331.27,-479.397l-3.314,0c0.687,12.896 1.522,27.494 2.896,43.405c1.194,16.419 1.911,33.375 3.045,51.853c0.358,18.389 0.687,37.226 0.687,56.361l0,327.777l-65.854,0l0,-570.804l81.109,0l330.166,477.964l2.896,0c-0.269,-9.045 -1.105,-22.24 -2.179,-39.286c-0.716,-16.687 -1.493,-34.778 -1.821,-54.212c-1.105,-19.105 -1.493,-36.838 -1.493,-53.883l0,-330.584l66.63,0Zm1003.99,58.779l0,512.025l-71.138,0l0,-512.025l-191.383,0l0,-58.779l452.739,0l0,58.779l-190.218,0Zm1276.392,360.107c0,34.002 -8.896,62.57 -26.27,86.213c-18.15,23.941 -43.375,42.42 -75.586,54.958c-31.822,12.15 -69.556,18.359 -113.2,18.359c-22.956,0 -45.166,-1.015 -65.555,-3.105c-20.359,-1.791 -39.226,-4.896 -56.271,-8.657c-16.956,-4.239 -32.539,-8.747 -45.495,-14.628l0,-63.585c20.688,8.269 46.271,15.643 76.183,22.21c30.001,7.015 61.137,10.389 94.035,10.389c30.419,0 55.913,-3.761 77.078,-11.404c21.374,-7.642 36.957,-18.747 48.48,-33.345c10.747,-14.329 16.269,-31.703 16.269,-51.853c0,-19.494 -4.836,-35.823 -14.06,-49.405c-8.926,-12.807 -24.061,-24.956 -45.166,-35.793c-21.076,-10.359 -50.391,-22.24 -87.019,-34.39c-25.583,-8.657 -48.45,-17.732 -68.123,-28.449c-19.583,-10.09 -36.241,-21.971 -49.196,-34.808c-13.314,-12.896 -23.374,-28.151 -30.001,-45.226c-7.015,-16.956 -10.329,-36.838 -10.329,-59.078c0,-30.27 8.12,-56.271 24.807,-78.213c16.24,-21.494 39.226,-38.271 68.451,-50.032c29.285,-11.523 62.899,-17.105 100.662,-17.105c32.599,0 62.6,2.478 90.393,8.418c27.315,5.941 52.48,13.195 75.496,22.897l-21.882,57.018c-22.18,-8.299 -45.196,-15.254 -69.556,-21.195c-24.479,-5.851 -49.973,-8.687 -75.884,-8.687c-26.27,0 -48.48,3.493 -65.914,10.478c-17.792,7.612 -31.434,17.702 -41.047,30.539c-9.642,12.896 -14.06,28.539 -14.06,46.629c0,19.792 4.418,36.479 13.642,49.674c8.508,13.195 23.285,25.076 43.375,35.166c19.165,10.717 45.435,21.195 78.452,32.569c35.524,11.911 65.854,24.718 91.019,38.659c24.807,13.553 44.062,30.27 57.018,50.032c12.538,19.792 19.255,44.868 19.255,74.75" style="fill:#C9A66B;"/><rect x="1881.709" y="3287.236" width="16221.649" height="58.811" style="fill:#C9A66B;"/></g></g></g></svg>